<svg width="15" height="16" viewBox="0 0 15 16" fill="none" xmlns="http://www.w3.org/2000/svg">
<path d="M2.00513 7.99312C2.00513 5.58583 3.73062 3.61274 6.00169 3.14592V3.99656L8.99911 1.99829L6.00169 0V1.08428C2.61849 1.5716 0.00683594 4.47752 0.00683594 7.99312C0.00683594 10.11 0.956045 12.0064 2.44693 13.2901L4.19651 12.1236C2.87533 11.2237 2.00513 9.70856 2.00513 7.99312Z" fill="#1F3349"/>
<path d="M11.5547 2.69615L9.80508 3.86263C11.1263 4.76254 11.9965 6.27767 11.9965 7.99311C11.9965 10.4034 10.2745 12.4031 7.99987 12.8694V11.9896L5.00244 13.9879L7.99987 15.9861V14.9059C11.3834 14.4184 13.9948 11.509 13.9948 7.99308C13.9948 5.87628 13.0456 3.97984 11.5547 2.69615Z" fill="#1F3349"/>
</svg>
